<svg xmlns="http://www.w3.org/2000/svg" viewBox="0 0 40 40" id="opel"><path d="M35 33.1v-.81h-2.42V29.1h-.91v4zm-12.21 0h3.45v-.79H23.7v-.86H26v-.74h-2.3v-.82h2.52v-.79h-3.43zm-7.51-2v-1.24h1.31a1 1 0 0 1 .45.07.39.39 0 0 1 .22.2.66.66 0 0 1 .06.34.6.6 0 0 1-.17.49.84.84 0 0 1-.56.14zm-.92-2v4h.92v-1.23h1.37a1.81 1.81 0 0 0 1.18-.33 1.27 1.27 0 0 0 .39-1.05 1.59 1.59 0 0 0-.17-.83 1 1 0 0 0-.52-.43 2.41 2.41 0 0 0-.88-.13zm-7.84 3.13a.79.79 0 0 1-.43-.41 1.6 1.6 0 0 1-.09-.71 1.76 1.76 0 0 1 .12-.72.86.86 0 0 1 .39-.39 1.78 1.78 0 0 1 .82-.14 2 2 0 0 1 .83.13.8.8 0 0 1 .42.41 1.8 1.8 0 0 1 .13.72 1.77 1.77 0 0 1-.13.72.82.82 0 0 1-.43.41 2.08 2.08 0 0 1-.82.14 2 2 0 0 1-.81-.14m2.13.75a1.61 1.61 0 0 0 .77-.69 2.74 2.74 0 0 0 0-2.31 1.63 1.63 0 0 0-.77-.7 3.31 3.31 0 0 0-1.32-.3 3.23 3.23 0 0 0-1.33.25 1.59 1.59 0 0 0-.77.7 2.82 2.82 0 0 0 0 2.31A1.57 1.57 0 0 0 6 33a3.31 3.31 0 0 0 1.32.23A3.48 3.48 0 0 0 8.65 33m22.68-16.21-2.2-.14h-.26v-.74a9.07 9.07 0 0 0-17.91-2H9a.35.35 0 0 0-.3.09l-.51.7a.18.18 0 0 0 0 .25.21.21 0 0 0 .11 0l2.18.13h.28v.74a9.07 9.07 0 0 0 17.91 2h2a.33.33 0 0 0 .27-.14l.52-.71a.17.17 0 0 0 0-.24.15.15 0 0 0-.11 0zm-11.5-8.92a8 8 0 0 1 8 8v.68l-6.71-.43 2.91-2a.15.15 0 0 0-.09-.28H12.07a8 8 0 0 1 7.76-5.97zm0 16a8 8 0 0 1-8-8v-.67l6.7.41-2.9 2a.16.16 0 0 0 0 .21.17.17 0 0 0 .13.07h11.83a8 8 0 0 1-7.76 6z"></path></svg>